<svg width="25" height="25" viewBox="0 0 25 25" fill="none" xmlns="http://www.w3.org/2000/svg">
<path d="M22.4114 9.5866H14.7165V1.89173C14.7165 0.947509 13.9508 0.181763 13.0065 0.181763H11.2966C10.3524 0.181763 9.5866 0.947509 9.5866 1.89173V9.5866H1.89173C0.947509 9.5866 0.181763 10.3524 0.181763 11.2966V13.0065C0.181763 13.9508 0.947509 14.7165 1.89173 14.7165H9.5866V22.4114C9.5866 23.3556 10.3524 24.1214 11.2966 24.1214H13.0065C13.9508 24.1214 14.7165 23.3556 14.7165 22.4114V14.7165H22.4114C23.3556 14.7165 24.1214 13.9508 24.1214 13.0065V11.2966C24.1214 10.3524 23.3556 9.5866 22.4114 9.5866Z" fill="#20201D"/>
</svg>
