<svg width="19" height="29" viewBox="0 0 19 29" fill="none" xmlns="http://www.w3.org/2000/svg">
<path d="M1.08096 13.0969L1.08095 13.0969C0.306349 13.8715 0.306349 15.1279 1.08095 15.9025L13.0969 27.919L13.4504 27.5655L13.0969 27.919C13.8715 28.6937 15.1279 28.6937 15.9025 27.919L17.3042 26.5174C18.0777 25.7438 18.0795 24.4905 17.3075 23.7151C17.3074 23.7151 17.3074 23.715 17.3074 23.715L8.13557 14.4997L17.3081 5.28494L17.3082 5.28481C18.0792 4.50965 18.0786 3.25646 17.3048 2.48263L15.9031 1.08095C15.1285 0.306349 13.8721 0.306349 13.0975 1.08095L1.08096 13.0969Z" fill="#20201D" stroke="#20201D"/>
</svg>
