<svg width="29" height="28" viewBox="0 0 29 28" fill="none" xmlns="http://www.w3.org/2000/svg">
<path d="M1.81733 11.6H27.1827C27.6724 11.6 28.0978 11.774 28.4587 12.122C28.8196 12.47 29 12.9018 29 13.4173V14.036C29 14.5516 28.8196 14.9833 28.4587 15.3313C28.0978 15.6793 27.6724 15.8533 27.1827 15.8533H1.81733C1.32756 15.8533 0.902222 15.6793 0.541333 15.3313C0.180444 14.9833 0 14.5516 0 14.036V13.4173C0 12.9018 0.180444 12.47 0.541333 12.122C0.902222 11.774 1.32756 11.6 1.81733 11.6ZM1.81733 0H27.1827C27.6724 0 28.0978 0.174 28.4587 0.522C28.8196 0.87 29 1.30178 29 1.81733V2.668C29 3.18356 28.8196 3.62178 28.4587 3.98267C28.0978 4.34356 27.6724 4.524 27.1827 4.524H1.81733C1.32756 4.524 0.902222 4.34356 0.541333 3.98267C0.180444 3.62178 0 3.18356 0 2.668V1.81733C0 1.30178 0.180444 0.87 0.541333 0.522C0.902222 0.174 1.32756 0 1.81733 0ZM1.81733 22.9293H27.1827C27.6724 22.9293 28.0978 23.1098 28.4587 23.4707C28.8196 23.8316 29 24.2698 29 24.7853V25.636C29 26.1516 28.8196 26.5833 28.4587 26.9313C28.0978 27.2793 27.6724 27.4533 27.1827 27.4533H1.81733C1.32756 27.4533 0.902222 27.2793 0.541333 26.9313C0.180444 26.5833 0 26.1516 0 25.636V24.7853C0 24.2698 0.180444 23.8316 0.541333 23.4707C0.902222 23.1098 1.32756 22.9293 1.81733 22.9293Z" fill="black"/>
</svg>
