<?xml version="1.0"?>
<svg version="1.1" xmlns="http://www.w3.org/2000/svg" width="278px" height="60px" style=""><path fill="#20201d" d="M1.6123046875,20.1611328125q-0.0634765625-0.7744140625,0.1015625-1.345703125t0.66015625-0.939453125t1.5869140625-0.3681640625l4.087890625,0q0.837890625,0,2.1962890625,0.0888671875t2.919921875,0.2666015625t3.1103515625,0.5458984375t2.8310546875,0.9140625t2.08203125,1.345703125t0.7998046875,1.8916015625q0,1.548828125-0.9013671875,2.9072265625t-2.259765625,2.4501953125t-2.869140625,1.9423828125t-2.7041015625,1.5361328125q4.72265625,1.041015625,7.388671875,4.31640625t2.666015625,8.17578125q0,2.58984375-0.990234375,5.1162109375t-2.7041015625,4.5576171875t-4.0625,3.275390625t-5.0400390625,1.244140625q-0.35546875,0-0.7998046875-0.076171875t-0.8125-0.2412109375t-0.634765625-0.4697265625t-0.2666015625-0.787109375q0-2.234375,2.412109375-2.234375q0.40625,0,0.9521484375,0.1142578125t0.8505859375,0.4697265625q1.396484375-0.583984375,2.5517578125-1.853515625t1.955078125-2.8310546875t1.244140625-3.275390625t0.4443359375-3.1103515625q0-1.67578125-0.4951171875-3.4150390625t-1.4345703125-3.224609375t-2.310546875-2.5009765625t-3.1484375-1.26953125q-0.45703125-0.05078125-1.0029296875-0.076171875l-1.091796875-0.05078125t-1.06640625-0.15234375t-0.9013671875-0.40625q0.203125,4.21484375,0.5205078125,8.404296875t0.8505859375,8.404296875q0.203125,0.203125,0.279296875,0.5966796875t0.126953125,0.837890625t0.05078125,0.8505859375l0,0.685546875q0,0.45703125-0.3046875,0.7490234375t-0.7236328125,0.4697265625t-0.888671875,0.228515625t-0.8251953125,0.05078125q-1.142578125,0-1.751953125-0.3046875t-0.86328125-0.888671875t-0.330078125-1.3330078125t-0.126953125-1.6376953125q-0.685546875-7.083984375-0.990234375-14.015625t-0.3046875-14.015625q0-0.837890625-0.0634765625-1.6123046875z M6.296875,19.08203125q0,3.123046875,0.203125,6.2587890625t0.35546875,6.2587890625q1.142578125-0.685546875,2.99609375-1.6123046875t3.5927734375-2.0439453125t2.9833984375-2.462890625t1.244140625-2.919921875q0-1.244140625-1.47265625-1.8916015625t-3.427734375-0.96484375t-3.8212890625-0.3935546875t-2.6533203125-0.228515625z M28.47990234375,55.54296875q0-0.736328125,0.0634765625-1.548828125t0.1142578125-1.5234375l0.15234375-3.80859375q0.25390625-4.5703125,0.6220703125-8.98828125t0.6220703125-8.9375q0.15234375-2.48828125,0.228515625-4.8876953125t0.228515625-4.8876953125q-0.1015625-0.203125-0.1015625-0.279296875q0-0.35546875,0.2666015625-0.55859375t0.6220703125-0.3427734375t0.7490234375-0.1904296875t0.5966796875-0.05078125l0.583984375,0q0.787109375,0.1015625,1.142578125,0.4951171875t0.45703125,0.939453125t0.05078125,1.16796875t-0.05078125,1.1552734375q0,3.681640625-0.177734375,7.5029296875t-0.40625,7.66796875t-0.4189453125,7.693359375t-0.1904296875,7.6044921875l0,1.77734375q0,1.193359375-0.6728515625,1.57421875t-1.8662109375,0.380859375q-1.041015625,0-1.828125-0.45703125t-0.787109375-1.498046875z M39.6180078125,47.01171875q0-1.447265625,0.3681640625-2.9833984375t1.16796875-2.767578125t2.0185546875-2.005859375t2.9453125-0.7744140625q1.294921875,0,2.7294921875,0.4443359375t2.6279296875,1.26953125t1.9423828125,2.0185546875t0.7490234375,2.666015625q0,1.77734375-0.6474609375,3.376953125t-1.8154296875,2.8564453125t-2.7294921875,1.98046875t-3.3896484375,0.7236328125q-1.498046875,0-2.615234375-0.5458984375t-1.8662109375-1.4599609375t-1.1171875-2.158203125t-0.3681640625-2.640625z M43.3504296875,46.9609375q0,0.45703125,0.1396484375,1.345703125t0.4189453125,1.7392578125t0.7236328125,1.47265625t1.0791015625,0.5712890625q1.345703125-0.15234375,2.2216796875-0.8759765625t1.421875-1.7646484375t0.76171875-2.259765625t0.2158203125-2.310546875q0-1.396484375-0.5458984375-2.3359375t-1.7900390625-1.5234375q0,0.05078125,0.05078125,0.05078125t0.05078125-0.05078125l-0.634765625-0.15234375q-0.25390625-0.1015625-0.6220703125-0.228515625t-0.7236328125-0.55859375q-0.990234375,0.35546875-1.5361328125,0.9140625t-0.8251953125,1.3583984375t-0.3427734375,1.9169921875t-0.0634765625,2.69140625z M58.34791015625,47.01171875q0-1.447265625,0.3681640625-2.9833984375t1.16796875-2.767578125t2.0185546875-2.005859375t2.9453125-0.7744140625q1.294921875,0,2.7294921875,0.4443359375t2.6279296875,1.26953125t1.9423828125,2.0185546875t0.7490234375,2.666015625q0,1.77734375-0.6474609375,3.376953125t-1.8154296875,2.8564453125t-2.7294921875,1.98046875t-3.3896484375,0.7236328125q-1.498046875,0-2.615234375-0.5458984375t-1.8662109375-1.4599609375t-1.1171875-2.158203125t-0.3681640625-2.640625z M62.08033203125,46.9609375q0,0.45703125,0.1396484375,1.345703125t0.4189453125,1.7392578125t0.7236328125,1.47265625t1.0791015625,0.5712890625q1.345703125-0.15234375,2.2216796875-0.8759765625t1.421875-1.7646484375t0.76171875-2.259765625t0.2158203125-2.310546875q0-1.396484375-0.5458984375-2.3359375t-1.7900390625-1.5234375q0,0.05078125,0.05078125,0.05078125t0.05078125-0.05078125l-0.634765625-0.15234375q-0.25390625-0.1015625-0.6220703125-0.228515625t-0.7236328125-0.55859375q-0.990234375,0.35546875-1.5361328125,0.9140625t-0.8251953125,1.3583984375t-0.3427734375,1.9169921875t-0.0634765625,2.69140625z M77.6491015625,40.1689453125q-0.0634765625-0.8505859375,0.1015625-1.5615234375t0.66015625-1.1552734375t1.5869140625-0.4443359375q0.25390625,0,0.6220703125,0.0634765625t0.7236328125,0.1650390625t0.5966796875,0.3046875t0.2412109375,0.55859375l0,2.869140625q0.990234375-1.142578125,2.158203125-1.6376953125t2.666015625-0.4951171875q1.142578125,0,2.259765625,0.5205078125t2.107421875,1.3837890625t1.7138671875,1.904296875t1.0537109375,2.08203125q0.203125-0.939453125,0.45703125-2.2978515625t0.7490234375-2.6025390625t1.3076171875-2.1328125t2.158203125-0.888671875q1.447265625,0,2.4375,1.041015625t1.6123046875,2.7041015625t0.939453125,3.7197265625t0.4697265625,4.0625t0.15234375,3.7451171875l0,2.7294921875q0,0.3046875-0.228515625,0.4951171875t-0.5712890625,0.2919921875t-0.7109375,0.126953125t-0.5712890625,0.025390625q-0.787109375,0-1.4345703125-0.2412109375t-0.6474609375-1.2314453125l0-2.28515625t-0.05078125-2.9580078125t-0.177734375-3.173828125t-0.330078125-2.8818359375t-0.5205078125-2.08203125t-0.7744140625-0.8125q-0.634765625,0-0.9140625,0.7109375t-0.4697265625,1.802734375t-0.2919921875,2.310546875t-0.279296875,2.310546875t-0.5712890625,1.7900390625t-1.0791015625,0.6982421875q-0.736328125,0-1.294921875-0.6982421875t-1.1044921875-1.7392578125t-1.091796875-2.234375t-1.2060546875-2.234375q-0.66015625-1.06640625-1.421875-1.7265625q-0.685546875-0.634765625-1.548828125-0.609375l-0.126953125,0q-1.142578125,0.05078125-1.7900390625,0.8251953125t-0.990234375,1.8916015625t-0.4189453125,2.3994140625t-0.076171875,2.2470703125q0,0.9140625,0.15234375,2.1328125q0.1015625,0.8125,0.1015625,1.548828125q0,0.380859375-0.025390625,0.736328125q-0.076171875,1.06640625-0.5712890625,1.7900390625t-1.8408203125,0.7236328125q-0.5078125,0-1.26953125-0.1015625t-1.015625-0.685546875q-0.583984375-1.041015625-0.888671875-2.6279296875t-0.45703125-3.275390625t-0.177734375-3.3515625t-0.025390625-2.8564453125q0-0.837890625-0.0634765625-1.6884765625z M109.73447265625,20.1611328125q-0.0634765625-0.7744140625,0.1015625-1.345703125t0.66015625-0.939453125t1.5869140625-0.3681640625l4.087890625,0q0.837890625,0,2.1962890625,0.0888671875t2.919921875,0.2666015625t3.1103515625,0.5458984375t2.8310546875,0.9140625t2.08203125,1.345703125t0.7998046875,1.8916015625q0,1.548828125-0.9013671875,2.9072265625t-2.259765625,2.4501953125t-2.869140625,1.9423828125t-2.7041015625,1.5361328125q4.72265625,1.041015625,7.388671875,4.31640625t2.666015625,8.17578125q0,2.58984375-0.990234375,5.1162109375t-2.7041015625,4.5576171875t-4.0625,3.275390625t-5.0400390625,1.244140625q-0.35546875,0-0.7998046875-0.076171875t-0.8125-0.2412109375t-0.634765625-0.4697265625t-0.2666015625-0.787109375q0-2.234375,2.412109375-2.234375q0.40625,0,0.9521484375,0.1142578125t0.8505859375,0.4697265625q1.396484375-0.583984375,2.5517578125-1.853515625t1.955078125-2.8310546875t1.244140625-3.275390625t0.4443359375-3.1103515625q0-1.67578125-0.4951171875-3.4150390625t-1.4345703125-3.224609375t-2.310546875-2.5009765625t-3.1484375-1.26953125q-0.45703125-0.05078125-1.0029296875-0.076171875l-1.091796875-0.05078125t-1.06640625-0.15234375t-0.9013671875-0.40625q0.203125,4.21484375,0.5205078125,8.404296875t0.8505859375,8.404296875q0.203125,0.203125,0.279296875,0.5966796875t0.126953125,0.837890625t0.05078125,0.8505859375l0,0.685546875q0,0.45703125-0.3046875,0.7490234375t-0.7236328125,0.4697265625t-0.888671875,0.228515625t-0.8251953125,0.05078125q-1.142578125,0-1.751953125-0.3046875t-0.86328125-0.888671875t-0.330078125-1.3330078125t-0.126953125-1.6376953125q-0.685546875-7.083984375-0.990234375-14.015625t-0.3046875-14.015625q0-0.837890625-0.0634765625-1.6123046875z M114.41904296875,19.08203125q0,3.123046875,0.203125,6.2587890625t0.35546875,6.2587890625q1.142578125-0.685546875,2.99609375-1.6123046875t3.5927734375-2.0439453125t2.9833984375-2.462890625t1.244140625-2.919921875q0-1.244140625-1.47265625-1.8916015625t-3.427734375-0.96484375t-3.8212890625-0.3935546875t-2.6533203125-0.228515625z M136.0942578125,47.01171875q0-1.447265625,0.3681640625-2.9833984375t1.16796875-2.767578125t2.0185546875-2.005859375t2.9453125-0.7744140625q1.294921875,0,2.7294921875,0.4443359375t2.6279296875,1.26953125t1.9423828125,2.0185546875t0.7490234375,2.666015625q0,1.77734375-0.6474609375,3.376953125t-1.8154296875,2.8564453125t-2.7294921875,1.98046875t-3.3896484375,0.7236328125q-1.498046875,0-2.615234375-0.5458984375t-1.8662109375-1.4599609375t-1.1171875-2.158203125t-0.3681640625-2.640625z M139.8266796875,46.9609375q0,0.45703125,0.1396484375,1.345703125t0.4189453125,1.7392578125t0.7236328125,1.47265625t1.0791015625,0.5712890625q1.345703125-0.15234375,2.2216796875-0.8759765625t1.421875-1.7646484375t0.76171875-2.259765625t0.2158203125-2.310546875q0-1.396484375-0.5458984375-2.3359375t-1.7900390625-1.5234375q0,0.05078125,0.05078125,0.05078125t0.05078125-0.05078125l-0.634765625-0.15234375q-0.25390625-0.1015625-0.6220703125-0.228515625t-0.7236328125-0.55859375q-0.990234375,0.35546875-1.5361328125,0.9140625t-0.8251953125,1.3583984375t-0.3427734375,1.9169921875t-0.0634765625,2.69140625z M154.03705078125,54.501953125q0-0.15234375,0.3681640625-0.8125t0.939453125-1.5869140625t1.244140625-2.0185546875t1.345703125-2.158203125t1.2568359375-1.9296875t0.888671875-1.3203125q-0.3046875-0.583984375-1.041015625-1.599609375t-1.5107421875-2.056640625t-1.345703125-2.005859375t-0.5712890625-1.421875q0-0.736328125,0.7236328125-0.96484375t1.4091796875-0.228515625q0.736328125,0,1.041015625,0.126953125t0.8125,0.7109375q-0.05078125,0.15234375,0.3681640625,0.7998046875t0.990234375,1.37109375t1.091796875,1.3203125t0.6220703125,0.7744140625l1.1171875-1.1171875t1.3837890625-1.2822265625t1.5107421875-1.041015625t1.447265625-0.4189453125q0.25390625,0,0.7744140625,0.126953125t0.5205078125,0.5078125q-0.736328125,0.787109375-1.345703125,1.294921875t-1.244140625,1.0283203125t-1.26953125,1.16796875t-1.47265625,1.6376953125q0.35546875,0.583984375,1.345703125,1.9296875t2.005859375,2.8564453125t1.7900390625,2.84375t0.7744140625,1.8408203125q0,0.3046875-0.3173828125,0.4951171875t-0.7236328125,0.3173828125t-0.8251953125,0.177734375t-0.6220703125,0.05078125q-0.583984375,0-1.3330078125-0.15234375t-1.0791015625-0.685546875q-0.990234375-1.447265625-1.7138671875-3.0341796875t-1.7646484375-3.0341796875q-0.203125,0.35546875-0.8251953125,1.67578125t-1.4853515625,2.7802734375t-1.8154296875,2.6025390625t-1.7392578125,1.142578125l-0.05078125,0q-0.35546875,0-1.015625-0.126953125t-0.66015625-0.583984375z"/><path fill="#" d=""/></svg>
