<svg width="50" height="50" viewBox="0 0 50 50" fill="none" xmlns="http://www.w3.org/2000/svg">
<path d="M24.3619 42.8283C22.357 42.8112 20.3758 42.3929 18.5351 41.598C16.6944 40.8032 15.0315 39.6479 13.6443 38.2002C10.828 35.2457 9.27381 31.3099 9.31171 27.2283C9.34961 23.1466 10.9766 19.2404 13.8473 16.3387L23.2658 6.89985C23.4494 6.70226 23.6727 6.54583 23.9211 6.44086C24.1696 6.3359 24.4374 6.28478 24.707 6.2909C24.977 6.29465 25.2436 6.35224 25.491 6.46029C25.7385 6.56834 25.9619 6.72468 26.1482 6.92015L35.4044 16.5011C38.2234 19.453 39.7812 23.3873 39.7471 27.4689C39.7129 31.5505 38.0896 35.4582 35.2217 38.3626C33.8091 39.8047 32.1179 40.9443 30.251 41.712C28.384 42.4797 26.3804 42.8595 24.3619 42.8283Z" fill="#20201D"/>
<path d="M24.3619 42.8283C22.357 42.8112 20.3758 42.3929 18.5351 41.598C16.6944 40.8032 15.0315 39.6479 13.6443 38.2002C10.828 35.2457 9.27381 31.3099 9.31171 27.2283C9.34961 23.1466 10.9766 19.2404 13.8473 16.3387L23.2658 6.89985C23.4494 6.70226 23.6727 6.54583 23.9211 6.44086C24.1696 6.3359 24.4374 6.28478 24.707 6.2909C24.977 6.29465 25.2436 6.35224 25.491 6.46029C25.7385 6.56834 25.9619 6.72468 26.1482 6.92015L35.4044 16.5011C38.2234 19.453 39.7812 23.3873 39.7471 27.4689C39.7129 31.5505 38.0896 35.4582 35.2217 38.3626C33.8091 39.8047 32.1179 40.9443 30.251 41.712C28.384 42.4797 26.3804 42.8595 24.3619 42.8283Z" fill="#20201D"/>
</svg>
