<svg width="35" height="35" viewBox="0 0 35 35" fill="none" xmlns="http://www.w3.org/2000/svg">
<path d="M17.1144 29.7381C15.7054 29.7262 14.3131 29.4358 13.0196 28.8839C11.726 28.332 10.5574 27.5298 9.58257 26.5246C7.60338 24.4731 6.5112 21.7402 6.53783 18.9061C6.56446 16.072 7.70781 13.3597 9.72522 11.3449L16.3441 4.79097C16.4731 4.65377 16.63 4.54515 16.8046 4.47227C16.9792 4.39939 17.1674 4.3639 17.3569 4.36814C17.5466 4.37074 17.7339 4.41073 17.9079 4.48576C18.0818 4.56078 18.2388 4.66934 18.3697 4.80507L24.8744 11.4576C26.8555 13.5073 27.9502 16.2391 27.9263 19.0732C27.9023 21.9073 26.7615 24.6206 24.7461 26.6373C23.7534 27.6387 22.5649 28.4299 21.2529 28.963C19.9409 29.4961 18.5328 29.7598 17.1144 29.7381ZM17.2998 7.79308L11.7508 13.3181C10.2525 14.8152 9.40387 16.8305 9.38523 18.9358C9.36658 21.0412 10.1794 23.0709 11.651 24.5936C12.3616 25.3179 13.2101 25.8962 14.1477 26.2953C15.0853 26.6944 16.0935 26.9064 17.1144 26.9192C18.1481 26.9277 19.1731 26.7312 20.1287 26.3414C21.0842 25.9517 21.951 25.3765 22.6777 24.65C24.1808 23.1546 25.0314 21.137 25.0474 19.0295C25.0634 16.9219 24.2435 14.892 22.7633 13.3745L17.2998 7.79308Z" fill="#20201D"/>
</svg>
