<svg width="40" height="47" viewBox="0 0 40 47" fill="none" xmlns="http://www.w3.org/2000/svg">
<path d="M39.4367 15.0986C37.0705 4.68733 27.9888 0 20.0113 0C20.0113 0 20.0113 0 19.9888 0C12.0338 0 2.92953 4.66479 0.563332 15.0761C-2.07329 26.7042 5.04784 36.5521 11.4929 42.7493C13.8817 45.0479 16.9465 46.1972 20.0113 46.1972C23.0761 46.1972 26.1409 45.0479 28.5071 42.7493C34.9522 36.5521 42.0733 26.7268 39.4367 15.0986ZM20.0113 26.3888C16.0902 26.3888 12.9126 23.2113 12.9126 19.2902C12.9126 15.369 16.0902 12.1916 20.0113 12.1916C23.9324 12.1916 27.1099 15.369 27.1099 19.2902C27.1099 23.2113 23.9324 26.3888 20.0113 26.3888Z" fill="#20201D"/>
</svg>
