<svg width="35" height="35" viewBox="0 0 35 35" fill="none" xmlns="http://www.w3.org/2000/svg">
<path d="M18.9583 5.6875C18.9583 6.734 18.109 7.58333 17.0625 7.58333C16.016 7.58333 15.1667 6.734 15.1667 5.6875V1.89583C15.1667 0.849333 16.016 0 17.0625 0C18.109 0 18.9583 0.849333 18.9583 1.89583V5.6875ZM18.9583 32.2292C18.9583 33.2757 18.109 34.125 17.0625 34.125C16.016 34.125 15.1667 33.2757 15.1667 32.2292V28.4375C15.1667 27.391 16.016 26.5417 17.0625 26.5417C18.109 26.5417 18.9583 27.391 18.9583 28.4375V32.2292ZM5.6875 15.1667C6.734 15.1667 7.58333 16.016 7.58333 17.0625C7.58333 18.109 6.734 18.9583 5.6875 18.9583H1.89583C0.849333 18.9583 0 18.109 0 17.0625C0 16.016 0.849333 15.1667 1.89583 15.1667H5.6875ZM32.2292 15.1667C33.2757 15.1667 34.125 16.016 34.125 17.0625C34.125 18.109 33.2757 18.9583 32.2292 18.9583H28.4375C27.391 18.9583 26.5417 18.109 26.5417 17.0625C26.5417 16.016 27.391 15.1667 28.4375 15.1667H32.2292ZM7.67907 23.7652C8.4194 23.0258 9.61946 23.0249 10.3598 23.7652C11.1001 24.5046 11.1001 25.7066 10.3598 26.4459L7.67907 29.1276C6.93875 29.867 5.73774 29.867 4.99836 29.1276C4.25804 28.3873 4.25804 27.1863 4.99836 26.4469L7.67907 23.7652ZM26.4459 4.99742C27.1863 4.25709 28.3863 4.25615 29.1266 4.99742C29.867 5.73774 29.867 6.9378 29.1266 7.67907L26.4459 10.3598C25.7056 11.1001 24.5046 11.1001 23.7652 10.3598C23.0249 9.61946 23.0249 8.4194 23.7652 7.67813L26.4459 4.99742ZM23.7652 26.4459C23.0258 25.7056 23.0249 24.5055 23.7652 23.7652C24.5046 23.0249 25.7066 23.0249 26.4459 23.7652L29.1276 26.4459C29.867 27.1863 29.867 28.3873 29.1276 29.1266C28.3873 29.867 27.1863 29.867 26.4469 29.1266L23.7652 26.4459ZM17.0625 8.53125C12.3504 8.53125 8.53125 12.3504 8.53125 17.0625C8.53125 21.7736 12.3504 25.5938 17.0625 25.5938C21.7746 25.5938 25.5938 21.7746 25.5938 17.0625C25.5938 12.3514 21.7746 8.53125 17.0625 8.53125ZM17.0625 21.8021C14.4453 21.8021 12.3229 19.6806 12.3229 17.0625C12.3229 14.4444 14.4453 12.3229 17.0625 12.3229C19.6806 12.3229 21.8021 14.4453 21.8021 17.0625C21.8021 19.6797 19.6806 21.8021 17.0625 21.8021ZM4.99742 7.67907C4.25709 6.93875 4.25615 5.73869 4.99742 4.99836C5.73774 4.25804 6.9378 4.25804 7.67907 4.99836L10.3598 7.67907C11.1001 8.4194 11.1001 9.62041 10.3598 10.3598C9.61946 11.1001 8.4194 11.1001 7.67813 10.3598L4.99742 7.67907Z" fill="#20201D"/>
</svg>
