<svg width="35" height="35" viewBox="0 0 35 35" fill="none" xmlns="http://www.w3.org/2000/svg">
<path d="M18.9583 6.5625C18.9583 7.609 18.109 8.45833 17.0625 8.45833C16.016 8.45833 15.1667 7.609 15.1667 6.5625V2.77083C15.1667 1.72433 16.016 0.875 17.0625 0.875C18.109 0.875 18.9583 1.72433 18.9583 2.77083V6.5625ZM18.9583 33.1042C18.9583 34.1507 18.109 35 17.0625 35C16.016 35 15.1667 34.1507 15.1667 33.1042V29.3125C15.1667 28.266 16.016 27.4167 17.0625 27.4167C18.109 27.4167 18.9583 28.266 18.9583 29.3125V33.1042ZM5.6875 16.0417C6.734 16.0417 7.58333 16.891 7.58333 17.9375C7.58333 18.984 6.734 19.8333 5.6875 19.8333H1.89583C0.849333 19.8333 0 18.984 0 17.9375C0 16.891 0.849333 16.0417 1.89583 16.0417H5.6875ZM32.2292 16.0417C33.2757 16.0417 34.125 16.891 34.125 17.9375C34.125 18.984 33.2757 19.8333 32.2292 19.8333H28.4375C27.391 19.8333 26.5417 18.984 26.5417 17.9375C26.5417 16.891 27.391 16.0417 28.4375 16.0417H32.2292ZM7.67907 24.6402C8.4194 23.9008 9.61946 23.8999 10.3598 24.6402C11.1001 25.3796 11.1001 26.5816 10.3598 27.3209L7.67907 30.0026C6.93875 30.742 5.73774 30.742 4.99836 30.0026C4.25804 29.2623 4.25804 28.0613 4.99836 27.3219L7.67907 24.6402ZM26.4459 5.87242C27.1863 5.13209 28.3863 5.13115 29.1266 5.87242C29.867 6.61274 29.867 7.8128 29.1266 8.55407L26.4459 11.2348C25.7056 11.9751 24.5046 11.9751 23.7652 11.2348C23.0249 10.4945 23.0249 9.2944 23.7652 8.55313L26.4459 5.87242ZM23.7652 27.3209C23.0258 26.5806 23.0249 25.3805 23.7652 24.6402C24.5046 23.8999 25.7066 23.8999 26.4459 24.6402L29.1276 27.3209C29.867 28.0613 29.867 29.2623 29.1276 30.0016C28.3873 30.742 27.1863 30.742 26.4469 30.0016L23.7652 27.3209ZM17.0625 9.40625C12.3504 9.40625 8.53125 13.2254 8.53125 17.9375C8.53125 22.6486 12.3504 26.4688 17.0625 26.4688C21.7746 26.4688 25.5938 22.6496 25.5938 17.9375C25.5938 13.2264 21.7746 9.40625 17.0625 9.40625ZM17.0625 22.6771C14.4453 22.6771 12.3229 20.5556 12.3229 17.9375C12.3229 15.3194 14.4453 13.1979 17.0625 13.1979C19.6806 13.1979 21.8021 15.3203 21.8021 17.9375C21.8021 20.5547 19.6806 22.6771 17.0625 22.6771ZM4.99742 8.55407C4.25709 7.81375 4.25615 6.61369 4.99742 5.87336C5.73774 5.13304 6.9378 5.13304 7.67907 5.87336L10.3598 8.55407C11.1001 9.2944 11.1001 10.4954 10.3598 11.2348C9.61946 11.9751 8.4194 11.9751 7.67813 11.2348L4.99742 8.55407Z" fill="#20201D"/>
<circle cx="16.9298" cy="17.2309" r="5.45197" fill="#20201D"/>
</svg>
