<svg width="42" height="42" viewBox="0 0 42 42" fill="none" xmlns="http://www.w3.org/2000/svg">
<path d="M23.3333 7C23.3333 8.288 22.288 9.33333 21 9.33333C19.712 9.33333 18.6667 8.288 18.6667 7V2.33333C18.6667 1.04533 19.712 0 21 0C22.288 0 23.3333 1.04533 23.3333 2.33333V7ZM23.3333 39.6667C23.3333 40.9547 22.288 42 21 42C19.712 42 18.6667 40.9547 18.6667 39.6667V35C18.6667 33.712 19.712 32.6667 21 32.6667C22.288 32.6667 23.3333 33.712 23.3333 35V39.6667ZM7 18.6667C8.288 18.6667 9.33333 19.712 9.33333 21C9.33333 22.288 8.288 23.3333 7 23.3333H2.33333C1.04533 23.3333 0 22.288 0 21C0 19.712 1.04533 18.6667 2.33333 18.6667H7ZM39.6667 18.6667C40.9547 18.6667 42 19.712 42 21C42 22.288 40.9547 23.3333 39.6667 23.3333H35C33.712 23.3333 32.6667 22.288 32.6667 21C32.6667 19.712 33.712 18.6667 35 18.6667H39.6667ZM9.45117 29.2495C10.3623 28.3395 11.8393 28.3383 12.7505 29.2495C13.6617 30.1595 13.6617 31.6388 12.7505 32.5488L9.45117 35.8493C8.54 36.7593 7.06183 36.7593 6.15183 35.8493C5.24067 34.9382 5.24067 33.46 6.15183 32.55L9.45117 29.2495ZM32.5488 6.15067C33.46 5.2395 34.937 5.23833 35.8482 6.15067C36.7593 7.06183 36.7593 8.53883 35.8482 9.45117L32.5488 12.7505C31.6377 13.6617 30.1595 13.6617 29.2495 12.7505C28.3383 11.8393 28.3383 10.3623 29.2495 9.45L32.5488 6.15067ZM29.2495 32.5488C28.3395 31.6377 28.3383 30.1607 29.2495 29.2495C30.1595 28.3383 31.6388 28.3383 32.5488 29.2495L35.8493 32.5488C36.7593 33.46 36.7593 34.9382 35.8493 35.8482C34.9382 36.7593 33.46 36.7593 32.55 35.8482L29.2495 32.5488ZM21 10.5C15.2005 10.5 10.5 15.2005 10.5 21C10.5 26.7983 15.2005 31.5 21 31.5C26.7995 31.5 31.5 26.7995 31.5 21C31.5 15.2017 26.7995 10.5 21 10.5ZM21 26.8333C17.7788 26.8333 15.1667 24.2223 15.1667 21C15.1667 17.7777 17.7788 15.1667 21 15.1667C24.2223 15.1667 26.8333 17.7788 26.8333 21C26.8333 24.2212 24.2223 26.8333 21 26.8333ZM6.15067 9.45117C5.2395 8.54 5.23833 7.063 6.15067 6.15183C7.06183 5.24067 8.53883 5.24067 9.45117 6.15183L12.7505 9.45117C13.6617 10.3623 13.6617 11.8405 12.7505 12.7505C11.8393 13.6617 10.3623 13.6617 9.45 12.7505L6.15067 9.45117Z" fill="#20201D"/>
<circle cx="20.8366" cy="20.1304" r="6.71011" fill="#20201D"/>
</svg>
