<svg width="36" height="31" viewBox="0 0 36 31" fill="none" xmlns="http://www.w3.org/2000/svg">
<path d="M29.7 6.246C28.368 7.56 28.026 9.45 28.656 11.07L23.4 16.326V12.6C23.4 11.61 22.59 10.8 21.6 10.8H19.746C19.8 10.494 19.8 10.206 19.8 9.9C19.8 4.428 15.372 0 9.9 0C4.428 0 0 4.428 0 9.9C0 12.978 1.404 15.714 3.6 17.532V28.8C3.6 29.79 4.41 30.6 5.4 30.6H21.6C22.59 30.6 23.4 29.79 23.4 28.8V21.402L31.194 13.608C32.814 14.238 34.704 13.914 36 12.6L29.7 6.246ZM3.69 10.8C3.654 10.494 3.6 10.206 3.6 9.9C3.6 6.426 6.426 3.6 9.9 3.6C13.374 3.6 16.2 6.426 16.2 9.9C16.2 10.206 16.146 10.494 16.11 10.8M19.8 27H7.2V14.4H19.8V27Z" fill="#20201D"/>
</svg>
