<svg width="75" height="87" viewBox="0 0 75 87" fill="none" xmlns="http://www.w3.org/2000/svg">
<path fill-rule="evenodd" clip-rule="evenodd" d="M46.3534 35.1738C45.5269 36.6028 44.79 38.0608 44.139 39.5398C44.116 36.4928 44.2845 33.4238 44.7446 30.3128C45.531 24.9828 46.7322 19.6818 47.8609 14.3878C48.6721 10.5838 48.6208 3.75179 51.6994 0.719794C52.5436 0.0647941 52.7468 1.35084 52.7468 1.90784C52.7575 2.02584 52.7445 -0.368165 51.9251 0.0488346C47.0544 2.56383 45.4763 10.4738 43.9169 14.4338C41.6418 20.2148 39.7061 26.1238 38.909 32.1378C38.7076 33.6568 38.598 35.1758 38.5727 36.6918C38.4071 36.2868 38.2516 35.8778 38.0796 35.4738C35.2684 28.8808 31.4747 22.4468 26.7431 16.5138C25.5784 15.0538 10.9342 0.648827 9.7878 2.85383C9.9009 3.17383 10.1377 3.43982 10.4988 3.65082C10.52 3.67482 10.5206 3.6618 10.5083 3.6258C11.3683 5.0158 13.8137 7.16085 14.5754 8.37885C16.4923 11.4419 17.9821 14.6928 19.4961 17.8818C22.6948 24.6218 25.6621 31.4288 28.5386 38.2498C29.2084 39.8388 29.9065 41.4188 30.6187 42.9938C23.2769 32.4048 13.4826 22.7908 0 17.2868C4.6049 19.6298 7.624 24.0368 10.7339 27.4118C14.4846 31.4828 18.4351 35.4438 22.1929 39.5098C26.6253 44.3068 31.8405 49.3578 36.1038 54.6658C40.2333 63.3358 44.2462 72.0148 46.7234 81.1278C45.7084 77.9798 46.6438 73.6278 46.4701 70.3238C46.3322 67.6928 46.0247 65.0838 45.6035 62.4798C46.1243 63.6548 46.5732 64.8298 46.7764 65.9238C46.5908 64.0898 46.377 62.2678 46.1472 60.4548C46.7369 58.7578 47.316 57.1748 47.7072 55.8698C49.7118 49.1788 52.0988 42.6018 55.3495 36.1928C58.3574 30.2638 61.8077 24.4098 65.5673 18.7348C67.321 16.0888 69.099 13.4528 70.866 10.8118C72.022 9.08284 73.123 6.31582 74.733 4.65882C64.3261 14.1738 52.956 23.7568 46.3534 35.1738Z" fill="#5B6E4E"/>
<path fill-rule="evenodd" clip-rule="evenodd" d="M15.4177 48.4558C15.4177 69.7428 17.0976 86.9998 39.6456 86.9998C62.1935 86.9998 63.8734 69.7428 63.8734 48.4558" fill="#DDB790"/>
</svg>
