<svg width="33" height="33" viewBox="0 0 33 33" fill="none" xmlns="http://www.w3.org/2000/svg">
<path d="M28.1987 26.2653L23.5693 21.6495C25.063 19.7466 25.8734 17.3967 25.8704 14.9776C25.8704 12.8232 25.2316 10.7172 24.0347 8.92592C22.8377 7.13461 21.1365 5.73846 19.1461 4.91401C17.1557 4.08956 14.9655 3.87385 12.8526 4.29415C10.7396 4.71445 8.79865 5.75188 7.27527 7.27527C5.75188 8.79865 4.71445 10.7396 4.29415 12.8526C3.87385 14.9655 4.08956 17.1557 4.91401 19.1461C5.73846 21.1365 7.13461 22.8377 8.92592 24.0347C10.7172 25.2316 12.8232 25.8704 14.9776 25.8704C17.3967 25.8734 19.7466 25.063 21.6495 23.5693L26.2653 28.1987C26.3919 28.3264 26.5425 28.4277 26.7084 28.4968C26.8743 28.5659 27.0523 28.6015 27.232 28.6015C27.4118 28.6015 27.5897 28.5659 27.7557 28.4968C27.9216 28.4277 28.0722 28.3264 28.1987 28.1987C28.3264 28.0722 28.4277 27.9216 28.4968 27.7557C28.5659 27.5897 28.6015 27.4118 28.6015 27.232C28.6015 27.0523 28.5659 26.8743 28.4968 26.7084C28.4277 26.5425 28.3264 26.3919 28.1987 26.2653ZM6.80804 14.9776C6.80804 13.3618 7.28718 11.7823 8.18486 10.4388C9.08255 9.09537 10.3585 8.04825 11.8513 7.42991C13.3441 6.81158 14.9867 6.64979 16.5714 6.96502C18.1562 7.28024 19.6119 8.05832 20.7544 9.20086C21.8969 10.3434 22.675 11.7991 22.9902 13.3838C23.3055 14.9686 23.1437 16.6112 22.5253 18.104C21.907 19.5968 20.8599 20.8727 19.5164 21.7704C18.1729 22.6681 16.5934 23.1472 14.9776 23.1472C12.8109 23.1472 10.733 22.2865 9.20086 20.7544C7.66876 19.2223 6.80804 17.1443 6.80804 14.9776Z" fill="#231F20"/>
</svg>
